# Exported from Wings 3D 2.2.6.1
mtllib Circle Gaps.mtl
o Cylinder2
#33 vertices, 29 faces
v 1.00000000 1.00000000 0.0000000e+0
v 0.92387953 1.00000000 0.38268343
v 0.70710678 1.00000000 0.70710678
v 0.38268343 1.00000000 0.92387953
v 6.1232340e-17 1.00000000 1.00000000
v -0.38268343 1.00000000 0.92387953
v -0.70710678 1.00000000 0.70710678
v -0.92387953 1.00000000 0.38268343
v -1.00000000 1.00000000 1.2246468e-16
v -0.92387953 1.00000000 -0.38268343
v -0.70710678 1.00000000 -0.70710678
v -0.38268343 1.00000000 -0.92387953
v -1.8369702e-16 1.00000000 -1.00000000
v 0.38268343 1.00000000 -0.92387953
v 0.70710678 1.00000000 -0.70710678
v 0.92387953 1.00000000 -0.38268343
v 1.3877788e-16 1.00000000 5.5511151e-17
v -0.57275649 1.00000000 0.57275649
v 0.57275649 1.00000000 -0.57275649
v -0.57275649 1.00000000 -0.57275649
v 0.57275649 1.00000000 0.57275649
v -0.81000000 1.00000000 1.0974351e-16
v 0.81000000 1.00000000 1.0547119e-17
v -1.2242679e-16 1.00000000 -0.81000000
v 7.5965992e-17 1.00000000 0.81000000
v -0.74834242 1.00000000 0.30997358
v 0.74834242 1.00000000 -0.30997358
v -0.30997358 1.00000000 -0.74834242
v 0.30997358 1.00000000 0.74834242
v -0.74834242 1.00000000 -0.30997358
v 0.74834242 1.00000000 0.30997358
v 0.30997358 1.00000000 -0.74834242
v -0.30997358 1.00000000 0.74834242
vn 0.0000000e+0 1.00000000 0.0000000e+0
vn 0.0000000e+0 1.00000000 0.0000000e+0
vn 0.0000000e+0 1.00000000 0.0000000e+0
vn 0.0000000e+0 1.00000000 0.0000000e+0
vn 0.0000000e+0 1.00000000 0.0000000e+0
vn 0.0000000e+0 1.00000000 0.0000000e+0
vn 0.0000000e+0 1.00000000 0.0000000e+0
vn 0.0000000e+0 1.00000000 0.0000000e+0
vn 0.0000000e+0 1.00000000 0.0000000e+0
vn 0.0000000e+0 1.00000000 0.0000000e+0
vn 0.0000000e+0 1.00000000 0.0000000e+0
vn 0.0000000e+0 1.00000000 0.0000000e+0
vn 0.0000000e+0 1.00000000 0.0000000e+0
vn 0.0000000e+0 1.00000000 0.0000000e+0
vn 0.0000000e+0 1.00000000 0.0000000e+0
vn 0.0000000e+0 1.00000000 0.0000000e+0
vn 0.0000000e+0 1.00000000 6.8266809e-32
vn 0.0000000e+0 1.00000000 0.0000000e+0
vn 0.0000000e+0 1.00000000 0.0000000e+0
vn 0.0000000e+0 1.00000000 1.4739382e-16
vn 0.0000000e+0 1.00000000 1.1054537e-16
vn 0.0000000e+0 1.00000000 0.0000000e+0
vn 0.0000000e+0 1.00000000 0.0000000e+0
vn 0.0000000e+0 1.00000000 -1.1054537e-16
vn 0.0000000e+0 1.00000000 -1.4739382e-16
vn 0.0000000e+0 1.00000000 0.0000000e+0
vn 0.0000000e+0 1.00000000 0.0000000e+0
vn 0.0000000e+0 1.00000000 1.1054537e-16
vn 0.0000000e+0 1.00000000 2.4651903e-32
vn 0.0000000e+0 1.00000000 0.0000000e+0
vn 0.0000000e+0 1.00000000 0.0000000e+0
vn 0.0000000e+0 1.00000000 -1.1054537e-16
vn 0.0000000e+0 1.00000000 0.0000000e+0
g Cylinder2
usemtl default
s 1
f 1//1 23//23 31//31 2//2
f 2//2 31//31 21//21 3//3
f 3//3 21//21 29//29 4//4
f 4//4 29//29 25//25 5//5
f 5//5 25//25 33//33 6//6
f 6//6 33//33 18//18 7//7
f 7//7 18//18 26//26 8//8
f 8//8 26//26 22//22 9//9
f 9//9 22//22 30//30 10//10
f 10//10 30//30 20//20 11//11
f 11//11 20//20 28//28 12//12
f 12//12 28//28 24//24 13//13
f 13//13 24//24 32//32 14//14
f 14//14 32//32 19//19 15//15
f 15//15 19//19 27//27 16//16
f 16//16 27//27 23//23 1//1
f 17//17 19//19 32//32
f 17//17 21//21 31//31
f 17//17 22//22 26//26
f 17//17 23//23 27//27
f 17//17 24//24 28//28
f 17//17 25//25 29//29
f 18//18 33//33 17//17
f 27//27 19//19 17//17
f 28//28 20//20 17//17
f 29//29 21//21 17//17
f 30//30 22//22 17//17
f 31//31 23//23 17//17
f 32//32 24//24 17//17
