# Exported from Wings 3D 2.2.6.1
mtllib Circle Gaps Jagged.mtl
o Cylinder2
#34 vertices, 45 faces
v 1.01929984 1.04717013 1.7498358e-2
v 0.91153013 0.81724712 0.37396352
v 0.70586848 0.88769407 0.66790583
v 0.39581340 1.00486540 0.91337618
v -6.4231485e-3 0.89723501 0.96111848
v -0.38270778 1.01205668 0.92030789
v -0.70097247 1.00327632 0.74305894
v -0.85202110 0.98099844 0.43492758
v -1.01453656 1.16076476 1.2132172e-2
v -0.95717359 0.98305938 -0.37015384
v -0.67577937 0.87265942 -0.72914385
v -0.39577848 1.16798934 -0.88737083
v -1.5698191e-2 1.11264234 -0.97417873
v 0.38344781 1.18205777 -0.93890829
v 0.77185663 0.96307651 -0.67952656
v 0.93790046 0.79822367 -0.39809114
v 5.5010079e-2 0.98417046 -3.8232786e-2
v -0.56391305 1.13400493 0.56648920
v 0.52041171 1.07480453 -0.58813875
v -0.62178035 0.98724697 -0.59215527
v 0.50821370 0.99872961 0.61117882
v -0.89589514 0.89413033 -1.2375120e-2
v 0.85150688 0.88295836 -3.7155939e-2
v 2.6021440e-2 0.98496051 -0.77214227
v 3.4245636e-2 0.90481364 0.83193284
v -0.79758698 1.03095627 0.30347707
v 0.74285722 0.91707863 -0.27280828
v -0.27526850 1.14454878 -0.75645859
v 0.28941843 0.95527482 0.75934736
v -0.81725326 1.06517911 -0.28218681
v 0.79193414 1.00003770 0.33454115
v 0.30012327 0.94964817 -0.75817170
v -0.31027006 1.15227594 0.73741090
v 5.5010079e-2 0.98417046 -3.8232786e-2
vn -0.60881884 0.72743742 -0.31650342
vn -0.71793213 0.66341092 0.21085398
vn 0.46196179 0.87975166 0.11237581
vn 0.83980279 0.54169473 -3.6029091e-2
vn -0.71793213 0.66341092 0.21085398
vn 0.59460721 0.52109226 0.61229497
vn 0.46196179 0.87975166 0.11237581
vn 0.45117576 0.87974745 0.14994951
vn -0.27108874 0.95501727 -0.12022025
vn -0.26123922 0.96493369 -2.5632929e-2
vn 0.45117576 0.87974745 0.14994951
vn -0.23242574 0.96114872 -0.14890066
vn -0.26123922 0.96493369 -2.5632929e-2
vn 0.27474229 0.95093312 0.14227746
vn -0.37257204 0.80183525 0.46717267
vn -0.26470965 0.86184315 0.43261436
vn 0.31549967 0.68861804 0.65288985
vn 0.27474229 0.95093312 0.14227746
vn -0.52918169 0.82465257 0.19978706
vn -0.26470965 0.86184315 0.43261436
vn -0.52918169 0.82465257 0.19978706
vn 5.2347749e-2 0.92609534 0.37364037
vn -0.50639915 0.85458506 0.11508379
vn 5.2347749e-2 0.92609534 0.37364037
vn 0.91045026 0.41007727 -5.4008792e-2
vn 0.81143479 0.40020340 -0.42592350
vn -0.35098728 0.78169750 -0.51551620
vn -0.61287437 0.73587450 0.28787796
vn 0.91045026 0.41007727 -5.4008792e-2
vn -0.27012466 0.87963477 -0.39150394
vn -0.35098728 0.78169750 -0.51551620
vn -0.76322352 0.61098124 -0.21021841
vn 0.44248264 0.86026408 -0.25328802
vn -0.76322352 0.61098124 -0.21021841
vn 0.23343417 0.84303032 0.48457029
vn -0.23083898 0.89850001 0.37337795
vn -0.18997045 0.81175507 0.55223631
vn 0.23343417 0.84303032 0.48457029
vn -0.18997045 0.81175507 0.55223631
vn 0.43507906 0.89441263 0.10359659
vn 3.7414406e-2 0.60506155 0.79529912
vn -0.67647974 0.58769219 0.44383898
vn 0.43507906 0.89441263 0.10359659
vn 0.46340426 0.85626993 0.22816286
vn 0.53888095 0.84139744 4.0714492e-2
vn -0.60881884 0.72743742 -0.31650342
vn 0.46340426 0.85626993 0.22816286
vn 0.47442005 0.87548065 -9.1974223e-2
vn 5.5109243e-2 0.98088264 -0.18663394
vn -9.7545213e-2 0.92394174 -0.36988727
vn -6.6464583e-2 0.85136080 0.52035300
vn -0.52918169 0.82465257 0.19978706
vn -0.37257204 0.80183525 0.46717267
vn -0.26470965 0.86184315 0.43261436
vn -0.50639915 0.85458506 0.11508379
vn 5.5109243e-2 0.98088264 -0.18663394
vn 0.43507906 0.89441263 0.10359659
vn 0.53888095 0.84139744 4.0714492e-2
vn 0.46340426 0.85626993 0.22816286
vn -0.38182380 0.90779883 -0.17352770
vn 0.20001042 0.92543962 0.32180327
vn -0.67647974 0.58769219 0.44383898
vn -0.35098728 0.78169750 -0.51551620
vn -0.76322352 0.61098124 -0.21021841
vn -0.26005962 0.91003836 0.32279896
vn -0.27012466 0.87963477 -0.39150394
vn -0.23083898 0.89850001 0.37337795
vn 0.46196179 0.87975166 0.11237581
vn -0.27108874 0.95501727 -0.12022025
vn -1.5748671e-2 0.99981072 -1.1424248e-2
vn 0.45117576 0.87974745 0.14994951
vn 0.59460721 0.52109226 0.61229497
vn -0.14323772 0.98662231 7.7841959e-2
vn -0.61287437 0.73587450 0.28787796
vn 0.91045026 0.41007727 -5.4008792e-2
vn -9.7545213e-2 0.92394174 -0.36988727
vn 0.81143479 0.40020340 -0.42592350
vn -6.6464583e-2 0.85136080 0.52035300
vn 0.83980279 0.54169473 -3.6029091e-2
vn -0.60881884 0.72743742 -0.31650342
vn 0.12548548 0.98842520 8.5258565e-2
vn -0.71793213 0.66341092 0.21085398
vn 0.12137165 0.95215997 -0.28046445
vn 0.47442005 0.87548065 -9.1974223e-2
vn -0.18997045 0.81175507 0.55223631
vn 0.12797219 0.99176974 -3.9871294e-3
vn 0.44248264 0.86026408 -0.25328802
vn 0.23343417 0.84303032 0.48457029
vn 3.7414406e-2 0.60506155 0.79529912
vn 0.46729168 0.88392988 -1.7505975e-2
vn -0.26123922 0.96493369 -2.5632929e-2
vn 0.31549967 0.68861804 0.65288985
vn -0.16983009 0.98175898 8.5481248e-2
vn -0.23242574 0.96114872 -0.14890066
vn 0.27474229 0.95093312 0.14227746
vn 5.2347749e-2 0.92609534 0.37364037
vn -0.50639915 0.85458506 0.11508379
vn -9.7545213e-2 0.92394174 -0.36988727
vn 0.81143479 0.40020340 -0.42592350
vn 0.53888095 0.84139744 4.0714492e-2
vn 0.12548548 0.98842520 8.5258565e-2
vn 0.47442005 0.87548065 -9.1974223e-2
vn 0.20001042 0.92543962 0.32180327
vn 0.44248264 0.86026408 -0.25328802
vn -0.26005962 0.91003836 0.32279896
vn -0.23083898 0.89850001 0.37337795
vn 0.46729168 0.88392988 -1.7505975e-2
vn -0.27108874 0.95501727 -0.12022025
vn -0.16983009 0.98175898 8.5481248e-2
vn -0.14323772 0.98662231 7.7841959e-2
vn -0.23242574 0.96114872 -0.14890066
vn -0.61287437 0.73587450 0.28787796
vn -0.27012466 0.87963477 -0.39150394
vn -6.6464583e-2 0.85136080 0.52035300
vn 0.83980279 0.54169473 -3.6029091e-2
vn -1.5748671e-2 0.99981072 -1.1424248e-2
vn 0.12137165 0.95215997 -0.28046445
vn 0.59460721 0.52109226 0.61229497
vn 0.12797219 0.99176974 -3.9871294e-3
vn 3.7414406e-2 0.60506155 0.79529912
vn -0.38182380 0.90779883 -0.17352770
vn -0.67647974 0.58769219 0.44383898
vn -0.37257204 0.80183525 0.46717267
vn 0.31549967 0.68861804 0.65288985
vn 5.5109243e-2 0.98088264 -0.18663394
vn 0.12797219 0.99176974 -3.9871294e-3
vn 0.12548548 0.98842520 8.5258565e-2
vn -1.5748671e-2 0.99981072 -1.1424248e-2
vn -0.26005962 0.91003836 0.32279896
vn 0.12137165 0.95215997 -0.28046445
vn -0.16983009 0.98175898 8.5481248e-2
vn -0.38182380 0.90779883 -0.17352770
vn 0.20001042 0.92543962 0.32180327
vn -0.14323772 0.98662231 7.7841959e-2
vn 0.46729168 0.88392988 -1.7505975e-2
g Cylinder2
usemtl default
s 1
f 1//2 23//82 2//5
f 2//6 31//118 21//72
f 4//10 25//91 5//13
f 6//16 18//54 7//20
f 10//27 20//63 11//31
f 12//33 28//104 24//87
f 15//44 19//59 16//47
f 16//48 27//102 23//84
f 18//55 26//97 8//23
f 18//56 33//125 17//49
f 20//65 34//129 28//105
f 21//69 29//108 4//9
f 22//76 26//98 17//50
f 22//74 30//112 10//28
f 23//83 34//130 31//117
f 24//89 32//120 14//41
f 25//92 33//124 6//17
f 29//109 34//131 25//93
f 32//121 34//132 19//60
s 2
f 2//3 21//68 3//7
f 4//12 29//111 25//94
f 5//14 25//95 6//18
f 6//15 33//123 18//53
f 7//19 18//52 8//21
f 9//26 26//99 22//77
f 11//32 20//64 12//34
f 12//35 24//88 13//38
f 14//42 32//122 19//62
f 16//46 23//80 1//1
f 19//61 34//133 27//103
f 23//79 31//115 2//4
f 28//107 34//135 24//90
f 31//116 34//128 21//70
s 3
f 3//8 21//71 4//11
f 8//22 26//96 9//24
f 9//25 22//75 10//29
f 10//30 30//113 20//66
f 13//37 24//85 14//39
f 14//40 19//57 15//43
f 17//51 30//114 22//78
f 19//58 27//100 16//45
f 20//67 28//106 12//36
f 21//73 34//134 29//110
f 24//86 34//126 32//119
f 27//101 34//127 23//81
