# Exported from Wings 3D 2.2.6.1
mtllib Jagged.mtl
o Cube3
#27 vertices, 25 faces
v -0.99934969 -2.2608924e-2 -0.99137095
v -0.97420219 3.3799789e-2 1.02708441
v -1.00551347 0.10864677 -0.86997806
v -1.01861092 -1.7542944e-2 -0.59537090
v -1.04193897 -1.8609461e-2 -0.38982309
v -0.98155175 -5.5487085e-2 -0.22746940
v -1.01932718 1.7829601e-2 2.5640396e-2
v -0.98026627 -3.5952710e-2 0.38862653
v -1.03038039 1.7889123e-2 0.62467763
v -1.05743816 9.8115274e-3 0.78628346
v 0.99052726 1.5526782e-2 -0.68165272
v 1.02161287 2.9425592e-2 -0.62869023
v 0.94771085 -2.1388663e-2 -0.18996778
v 1.04365950 -2.9056157e-2 -3.2337415e-2
v 0.93510544 -2.8626674e-2 0.21203145
v 0.94324716 3.0901364e-2 0.38243148
v 1.01703273 2.4355719e-2 0.59903902
v 0.25237247 3.2828154e-2 -1.13451123
v 0.19162919 -1.1013274e-2 1.12283984
v -0.13722638 8.1080329e-3 -0.93978182
v 0.60237164 -2.5377387e-3 -0.53920335
v -0.62046098 0.10538991 -0.39603497
v 0.57446242 6.1257768e-2 -0.16937515
v -0.14891332 8.2911371e-2 6.9626538e-2
v 0.21942528 2.6319583e-2 0.18690284
v -0.14122464 -1.7876477e-2 0.56756887
v -0.60474979 -7.6063240e-2 0.74877856
vn -1.0398560e-2 0.92593425 -0.37754156
vn 0.11671710 0.96693175 -0.22676001
vn 9.7360561e-2 0.97601888 -0.19469992
vn -3.9131579e-2 0.99885288 -2.7598068e-2
vn -0.27747858 0.95024926 0.14153439
vn -0.12657858 0.98772550 9.1521585e-2
vn -5.7094965e-2 0.95663927 -0.28562469
vn -1.4618792e-2 0.99973399 -1.7839260e-2
vn 9.8202729e-2 0.98910274 0.10969042
vn 0.18321536 0.98234433 -3.7838525e-2
vn -6.8896503e-2 0.99572873 -6.1461851e-2
vn -0.11463159 0.97532703 -0.18867109
vn 0.21120348 0.97406534 -8.1177560e-2
vn 0.12694972 0.98803336 8.7600489e-2
vn 8.0984260e-2 0.98492610 -0.15284674
vn -5.7151068e-3 0.99947822 -3.1790390e-2
vn -3.7569839e-2 0.99836982 4.2967511e-2
vn -3.8527823e-2 0.99802518 4.9611959e-2
vn 6.0917752e-2 0.95340086 -0.29549252
vn 1.8806823e-2 0.99927485 -3.3107058e-2
vn -3.5298890e-2 0.98659214 -0.15934218
vn -0.17241103 0.98075601 9.1608360e-2
vn 4.7898051e-2 0.99033344 0.13017474
vn 2.5262237e-2 0.99879218 -4.2142686e-2
vn 5.8603716e-2 0.99819478 -1.3145145e-2
vn 4.6564181e-3 0.99617736 8.7229551e-2
vn 0.12793857 0.99155690 2.1133997e-2
g Cube3
usemtl default
s 1
f 1//1 20//20 18//18
f 2//2 27//27 10//10
f 3//3 20//20 1//1
f 4//4 20//20 3//3
f 4//4 22//22 21//21
f 5//5 22//22 4//4
f 6//6 22//22 5//5
f 6//6 24//24 23//23
f 7//7 24//24 6//6
f 8//8 26//26 16//16
f 9//9 26//26 8//8
f 9//9 27//27 26//26
f 10//10 27//27 9//9
f 11//11 21//21 12//12
f 13//13 23//23 14//14
f 14//14 23//23 24//24
f 14//14 25//25 15//15
f 15//15 25//25 16//16
f 16//16 25//25 8//8
f 16//16 26//26 17//17
f 19//19 27//27 2//2
f 20//20 21//21 11//11
f 21//21 20//20 4//4
f 23//23 22//22 6//6
f 24//24 25//25 14//14
