# Exported from Wings 3D 2.2.9
mtllib Multi Polygonal Corner 2.mtl
o Cube1
#6 vertices, 4 faces
v -2.32600000 0.0000000e+0 -1.05866667
v -1.71400000 0.0000000e+0 0.82400000
v 2.32600000 0.0000000e+0 -1.05866667
v 1.71400000 0.0000000e+0 0.82400000
v -1.0666667e-2 0.0000000e+0 1.17600000
v 0.0000000e+0 0.0000000e+0 -1.17600000
vn -0.0000000e+0 1.00000000 0.0000000e+0
vn 0.0000000e+0 1.00000000 0.0000000e+0
vn 0.0000000e+0 1.00000000 0.0000000e+0
vn -0.0000000e+0 1.00000000 0.0000000e+0
vn 0.0000000e+0 1.00000000 0.0000000e+0
vn 0.0000000e+0 1.00000000 0.0000000e+0
vn 0.0000000e+0 1.00000000 0.0000000e+0
vn 0.0000000e+0 1.00000000 0.0000000e+0
vn 0.0000000e+0 1.00000000 0.0000000e+0
vn 0.0000000e+0 1.00000000 0.0000000e+0
vn 0.0000000e+0 1.00000000 0.0000000e+0
vn 0.0000000e+0 1.00000000 0.0000000e+0
g Cube1_default
usemtl default
s 2
f 2//2 6//9 1//1
f 3//4 6//10 4//5
f 4//6 6//11 5//7
f 5//8 6//12 2//3
