# Exported from Wings 3D 2.2.6.1
mtllib OverhangComplex.mtl
o Cube1
#153 vertices, 144 faces
v -1.39837500 -1.00000000 -1.39837500
v -1.39837500 -1.00000000 1.39837500
v -0.75000000 2.3818897e-2 -0.75000000
v -0.75000000 2.3818897e-2 0.75000000
v 1.39837500 -1.00000000 -1.39837500
v 1.39837500 -1.00000000 1.39837500
v 0.75000000 2.3818897e-2 -0.75000000
v 0.75000000 2.3818897e-2 0.75000000
v 0.27150000 -0.65777778 0.27150000
v 0.27150000 -0.65777778 -0.27150000
v -0.27150000 -0.65777778 0.27150000
v -0.27150000 -0.65777778 -0.27150000
v -1.90687500 -1.00000000 0.0000000e+0
v 5.5511151e-17 -1.00000000 -1.90687500
v -0.82362500 -0.82888889 -0.82362500
v 5.5511151e-17 -1.00000000 1.90687500
v -0.82362500 -0.82888889 0.82362500
v -1.00000000 2.3818897e-2 0.0000000e+0
v 0.0000000e+0 2.3818897e-2 -1.00000000
v -0.51075000 -0.31697944 -0.51075000
v 0.0000000e+0 2.3818897e-2 1.00000000
v -0.51075000 -0.31697944 0.51075000
v 1.90687500 -1.00000000 0.0000000e+0
v 0.82362500 -0.82888889 -0.82362500
v 0.82362500 -0.82888889 0.82362500
v 1.00000000 2.3818897e-2 0.0000000e+0
v 0.51075000 -0.31697944 -0.51075000
v 0.51075000 -0.31697944 0.51075000
v 0.33937500 -0.65777778 0.0000000e+0
v 0.0000000e+0 -0.65777778 0.33937500
v 0.0000000e+0 -0.65777778 -0.33937500
v -0.33937500 -0.65777778 0.0000000e+0
v -1.12312500 -0.82888889 0.0000000e+0
v 0.0000000e+0 -0.31697944 0.63843750
v 1.12312500 -0.82888889 -6.9388939e-18
v 0.0000000e+0 -0.31697944 -0.63843750
v 1.3877788e-17 -0.82888889 1.12312500
v -0.63843750 -0.31697944 0.0000000e+0
v 0.63843750 -0.31697944 0.0000000e+0
v 6.9388939e-18 -0.82888889 -1.12312500
v 0.0000000e+0 2.3818897e-2 0.0000000e+0
v -1.77975000 -1.00000000 -0.76275000
v -0.76275000 -1.00000000 -1.77975000
v -1.11100000 -0.91444444 -1.11100000
v -0.76275000 -1.00000000 1.77975000
v -1.11100000 -0.91444444 1.11100000
v -0.87500000 2.3818897e-2 -0.37500000
v -0.37500000 2.3818897e-2 -0.87500000
v -0.63037500 -0.14658027 -0.63037500
v -0.37500000 2.3818897e-2 0.87500000
v -0.63037500 -0.14658027 0.63037500
v 1.77975000 -1.00000000 -0.76275000
v 1.11100000 -0.91444444 -1.11100000
v 1.11100000 -0.91444444 1.11100000
v 0.87500000 2.3818897e-2 -0.37500000
v 0.63037500 -0.14658027 -0.63037500
v 0.63037500 -0.14658027 0.63037500
v 0.31675000 -0.65777778 0.13575000
v 0.13575000 -0.65777778 0.31675000
v 0.13575000 -0.65777778 -0.31675000
v -0.31675000 -0.65777778 0.13575000
v -1.77975000 -1.00000000 0.76275000
v 0.76275000 -1.00000000 -1.77975000
v -0.53625000 -0.74333333 -0.53625000
v 0.76275000 -1.00000000 1.77975000
v -0.53625000 -0.74333333 0.53625000
v -0.87500000 2.3818897e-2 0.37500000
v 0.37500000 2.3818897e-2 -0.87500000
v -0.39112500 -0.48737861 -0.39112500
v 0.37500000 2.3818897e-2 0.87500000
v -0.39112500 -0.48737861 0.39112500
v 1.77975000 -1.00000000 0.76275000
v 0.53625000 -0.74333333 -0.53625000
v 0.53625000 -0.74333333 0.53625000
v 0.87500000 2.3818897e-2 0.37500000
v 0.39112500 -0.48737861 -0.39112500
v 0.39112500 -0.48737861 0.39112500
v 0.31675000 -0.65777778 -0.13575000
v -0.13575000 -0.65777778 0.31675000
v -0.13575000 -0.65777778 -0.31675000
v -0.31675000 -0.65777778 -0.13575000
v -1.04825000 -0.82888889 0.44925000
v -1.51500000 -0.91444444 0.0000000e+0
v -1.04825000 -0.82888889 -0.44925000
v -0.73125000 -0.74333333 0.0000000e+0
v -0.25537500 -0.31697944 0.59587500
v 0.0000000e+0 -0.14658027 0.78796875
v 0.25537500 -0.31697944 0.59587500
v 0.0000000e+0 -0.48737861 0.48890625
v 1.04825000 -0.82888889 -0.44925000
v 1.51500000 -0.91444444 0.0000000e+0
v 1.04825000 -0.82888889 0.44925000
v 0.73125000 -0.74333333 0.0000000e+0
v 0.25537500 -0.31697944 -0.59587500
v 0.0000000e+0 -0.14658027 -0.78796875
v -0.25537500 -0.31697944 -0.59587500
v 0.0000000e+0 -0.48737861 -0.48890625
v 0.44925000 -0.82888889 1.04825000
v 2.7755576e-17 -0.91444444 1.51500000
v -0.44925000 -0.82888889 1.04825000
v 0.0000000e+0 -0.74333333 0.73125000
v -0.59587500 -0.31697944 -0.25537500
v -0.78796875 -0.14658027 0.0000000e+0
v -0.59587500 -0.31697944 0.25537500
v -0.48890625 -0.48737861 0.0000000e+0
v 0.59587500 -0.31697944 0.25537500
v 0.78796875 -0.14658027 0.0000000e+0
v 0.59587500 -0.31697944 -0.25537500
v 0.48890625 -0.48737861 0.0000000e+0
v -0.44925000 -0.82888889 -1.04825000
v 2.7755576e-17 -0.91444444 -1.51500000
v 0.44925000 -0.82888889 -1.04825000
v 0.0000000e+0 -0.74333333 -0.73125000
v 0.0000000e+0 2.3818897e-2 0.50000000
v -0.50000000 2.3818897e-2 0.0000000e+0
v 0.0000000e+0 2.3818897e-2 -0.50000000
v 0.50000000 2.3818897e-2 0.0000000e+0
v -1.41400000 -0.91444444 0.60600000
v -1.41400000 -0.91444444 -0.60600000
v -0.68250000 -0.74333333 -0.29250000
v -0.68250000 -0.74333333 0.29250000
v -0.31518750 -0.14658027 0.73543750
v 0.31518750 -0.14658027 0.73543750
v 0.19556250 -0.48737861 0.45631250
v -0.19556250 -0.48737861 0.45631250
v 1.41400000 -0.91444444 -0.60600000
v 1.41400000 -0.91444444 0.60600000
v 0.68250000 -0.74333333 0.29250000
v 0.68250000 -0.74333333 -0.29250000
v 0.31518750 -0.14658027 -0.73543750
v -0.31518750 -0.14658027 -0.73543750
v -0.19556250 -0.48737861 -0.45631250
v 0.19556250 -0.48737861 -0.45631250
v 0.60600000 -0.91444444 1.41400000
v -0.60600000 -0.91444444 1.41400000
v -0.29250000 -0.74333333 0.68250000
v 0.29250000 -0.74333333 0.68250000
v -0.73543750 -0.14658027 -0.31518750
v -0.73543750 -0.14658027 0.31518750
v -0.45631250 -0.48737861 0.19556250
v -0.45631250 -0.48737861 -0.19556250
v 0.73543750 -0.14658027 0.31518750
v 0.73543750 -0.14658027 -0.31518750
v 0.45631250 -0.48737861 -0.19556250
v 0.45631250 -0.48737861 0.19556250
v -0.60600000 -0.91444444 -1.41400000
v 0.60600000 -0.91444444 -1.41400000
v 0.29250000 -0.74333333 -0.68250000
v -0.29250000 -0.74333333 -0.68250000
v -0.43750000 2.3818897e-2 0.43750000
v -0.43750000 2.3818897e-2 -0.43750000
v 0.43750000 2.3818897e-2 -0.43750000
v 0.43750000 2.3818897e-2 0.43750000
vn -0.14566429 0.97855190 -0.14566429
vn -0.14566429 0.97855190 0.14566429
vn 0.14566429 0.97855190 -0.14566429
vn 0.14566429 0.97855190 0.14566429
vn -0.21329928 0.97698691 0.0000000e+0
vn 1.7358193e-17 0.97698691 -0.21329928
vn -0.14566429 0.97855190 -0.14566429
vn 3.1244747e-17 0.97698691 0.21329928
vn -0.14566429 0.97855190 0.14566429
vn 0.21329928 0.97698691 -1.3886554e-17
vn 0.14566429 0.97855190 -0.14566429
vn 0.14566429 0.97855190 0.14566429
vn -0.21329928 0.97698691 0.0000000e+0
vn 8.3917538e-17 -0.65958313 0.75163163
vn 0.21329928 0.97698691 -1.5622374e-17
vn -7.6924410e-17 -0.65958313 -0.75163163
vn 1.0414916e-17 0.97698691 0.21329928
vn -0.75163163 -0.65958313 8.0420974e-17
vn 0.75163163 -0.65958313 -7.3427846e-17
vn 0.0000000e+0 0.97698691 -0.21329928
vn -0.19766009 0.97759530 -7.2373415e-2
vn -7.2373415e-2 0.97759530 -0.19766009
vn -0.14566429 0.97855190 -0.14566429
vn -7.2373415e-2 0.97759530 0.19766009
vn -0.14566429 0.97855190 0.14566429
vn 0.19766009 0.97759530 -7.2373415e-2
vn 0.14566429 0.97855190 -0.14566429
vn 0.14566429 0.97855190 0.14566429
vn -0.19766009 0.97759530 7.2373415e-2
vn 7.2373415e-2 0.97759530 -0.19766009
vn -0.14744593 0.97801810 -0.14744593
vn 7.2373415e-2 0.97759530 0.19766009
vn -0.14744593 0.97801810 0.14744593
vn 0.19766009 0.97759530 7.2373415e-2
vn 0.14744593 0.97801810 -0.14744593
vn 0.14744593 0.97801810 0.14744593
vn -0.19766009 0.97759530 7.2373415e-2
vn -0.21329928 0.97698691 0.0000000e+0
vn -0.19766009 0.97759530 -7.2373415e-2
vn -0.21329928 0.97698691 0.0000000e+0
vn -0.18069441 -0.66038723 0.72886092
vn 2.8111283e-17 -0.69694670 0.71712293
vn 0.18069441 -0.66038723 0.72886092
vn 5.5945026e-17 -0.65958313 0.75163163
vn 0.19766009 0.97759530 -7.2373415e-2
vn 0.21329928 0.97698691 -2.2565651e-17
vn 0.19766009 0.97759530 7.2373415e-2
vn 0.21329928 0.97698691 0.0000000e+0
vn 0.18069441 -0.66038723 -0.72886092
vn -1.7569552e-17 -0.69694670 -0.71712293
vn -0.18069441 -0.66038723 -0.72886092
vn -5.5945026e-17 -0.65958313 -0.75163163
vn 7.2373415e-2 0.97759530 0.19766009
vn 2.4301470e-17 0.97698691 0.21329928
vn -7.2373415e-2 0.97759530 0.19766009
vn 0.0000000e+0 0.97698691 0.21329928
vn -0.72886092 -0.66038723 -0.18069441
vn -0.71712293 -0.69694670 3.5139104e-17
vn -0.72886092 -0.66038723 0.18069441
vn -0.75163163 -0.65958313 5.2448461e-17
vn 0.72886092 -0.66038723 0.18069441
vn 0.71712293 -0.69694670 -1.7569552e-17
vn 0.72886092 -0.66038723 -0.18069441
vn 0.75163163 -0.65958313 -5.2448461e-17
vn -7.2373415e-2 0.97759530 -0.19766009
vn 8.6790965e-18 0.97698691 -0.21329928
vn 7.2373415e-2 0.97759530 -0.19766009
vn 0.0000000e+0 0.97698691 -0.21329928
vn -0.19766009 0.97759530 7.2373415e-2
vn -0.19766009 0.97759530 -7.2373415e-2
vn -0.20165122 0.97694913 -7.0051231e-2
vn -0.20165122 0.97694913 7.0051231e-2
vn -0.19275908 -0.67729966 0.71000641
vn 0.19275908 -0.67729966 0.71000641
vn 0.18069441 -0.66038723 0.72886092
vn -0.18069441 -0.66038723 0.72886092
vn 0.19766009 0.97759530 -7.2373415e-2
vn 0.19766009 0.97759530 7.2373415e-2
vn 0.20165122 0.97694913 7.0051231e-2
vn 0.20165122 0.97694913 -7.0051231e-2
vn 0.19275908 -0.67729966 -0.71000641
vn -0.19275908 -0.67729966 -0.71000641
vn -0.18069441 -0.66038723 -0.72886092
vn 0.18069441 -0.66038723 -0.72886092
vn 7.2373415e-2 0.97759530 0.19766009
vn -7.2373415e-2 0.97759530 0.19766009
vn -7.0051231e-2 0.97694913 0.20165122
vn 7.0051231e-2 0.97694913 0.20165122
vn -0.71000641 -0.67729966 -0.19275908
vn -0.71000641 -0.67729966 0.19275908
vn -0.72886092 -0.66038723 0.18069441
vn -0.72886092 -0.66038723 -0.18069441
vn 0.71000641 -0.67729966 0.19275908
vn 0.71000641 -0.67729966 -0.19275908
vn 0.72886092 -0.66038723 -0.18069441
vn 0.72886092 -0.66038723 0.18069441
vn -7.2373415e-2 0.97759530 -0.19766009
vn 7.2373415e-2 0.97759530 -0.19766009
vn 7.0051231e-2 0.97694913 -0.20165122
vn -7.0051231e-2 0.97694913 -0.20165122
vn 0.0000000e+0 1.00000000 0.0000000e+0
vn 0.0000000e+0 1.00000000 0.0000000e+0
vn 0.0000000e+0 1.00000000 0.0000000e+0
vn 0.0000000e+0 1.00000000 0.0000000e+0
vn -0.23645556 -0.66399375 -0.70936667
vn -0.70936667 -0.66399375 -0.23645556
vn 0.0000000e+0 1.00000000 0.0000000e+0
vn -0.23645556 -0.66399375 0.70936667
vn -0.70936667 -0.66399375 0.23645556
vn 0.0000000e+0 1.00000000 0.0000000e+0
vn 0.23645556 -0.66399375 -0.70936667
vn 0.70936667 -0.66399375 -0.23645556
vn 0.0000000e+0 1.00000000 0.0000000e+0
vn 0.23645556 -0.66399375 0.70936667
vn 0.70936667 -0.66399375 0.23645556
vn 0.0000000e+0 1.00000000 0.0000000e+0
vn 0.23645556 -0.66399375 0.70936667
vn 0.14922852 0.97747721 0.14922852
vn 0.14922852 0.97747721 0.14922852
vn 0.70936667 -0.66399375 0.23645556
vn 0.14922852 0.97747721 -0.14922852
vn 0.23645556 -0.66399375 -0.70936667
vn 0.70936667 -0.66399375 -0.23645556
vn 0.14922852 0.97747721 -0.14922852
vn -0.14922852 0.97747721 0.14922852
vn -0.23645556 -0.66399375 0.70936667
vn -0.14922852 0.97747721 0.14922852
vn -0.70936667 -0.66399375 0.23645556
vn -0.14922852 0.97747721 -0.14922852
vn -0.23645556 -0.66399375 -0.70936667
vn -0.70936667 -0.66399375 -0.23645556
vn -0.14922852 0.97747721 -0.14922852
vn -0.68048572 -0.73276135 1.4088774e-17
vn -0.68048572 -0.73276135 1.4088774e-17
vn 0.0000000e+0 1.00000000 0.0000000e+0
vn 0.0000000e+0 1.00000000 0.0000000e+0
vn 0.0000000e+0 -0.73276135 -0.68048572
vn 0.0000000e+0 -0.73276135 -0.68048572
vn 0.0000000e+0 1.00000000 0.0000000e+0
vn 0.0000000e+0 1.00000000 0.0000000e+0
vn -0.23645556 -0.66399375 -0.70936667
vn -0.23645556 -0.66399375 -0.70936667
vn -0.70936667 -0.66399375 -0.23645556
vn -0.70936667 -0.66399375 -0.23645556
vn 0.0000000e+0 -0.73276135 0.68048572
vn 0.0000000e+0 -0.73276135 0.68048572
vn 0.0000000e+0 1.00000000 0.0000000e+0
vn 0.0000000e+0 1.00000000 0.0000000e+0
vn -0.23645556 -0.66399375 0.70936667
vn -0.23645556 -0.66399375 0.70936667
vn -0.70936667 -0.66399375 0.23645556
vn -0.70936667 -0.66399375 0.23645556
vn 0.68048572 -0.73276135 0.0000000e+0
vn 0.68048572 -0.73276135 0.0000000e+0
vn 0.0000000e+0 1.00000000 0.0000000e+0
vn 0.0000000e+0 1.00000000 0.0000000e+0
vn 0.23645556 -0.66399375 -0.70936667
vn 0.23645556 -0.66399375 -0.70936667
vn 0.70936667 -0.66399375 -0.23645556
vn 0.70936667 -0.66399375 -0.23645556
vn 0.23645556 -0.66399375 0.70936667
vn 0.23645556 -0.66399375 0.70936667
vn 0.70936667 -0.66399375 0.23645556
vn 0.70936667 -0.66399375 0.23645556
vn 0.21329928 0.97698691 0.0000000e+0
vn 0.21329928 0.97698691 0.0000000e+0
vn 0.75163163 -0.65958313 0.0000000e+0
vn 0.75163163 -0.65958313 0.0000000e+0
vn 0.0000000e+0 -0.65958313 0.75163163
vn 0.0000000e+0 -0.65958313 0.75163163
vn 0.0000000e+0 0.97698691 0.21329928
vn 0.0000000e+0 0.97698691 0.21329928
vn 0.0000000e+0 -0.65958313 -0.75163163
vn 0.0000000e+0 -0.65958313 -0.75163163
vn 0.0000000e+0 0.97698691 -0.21329928
vn 0.0000000e+0 0.97698691 -0.21329928
vn -0.21329928 0.97698691 0.0000000e+0
vn -0.21329928 0.97698691 0.0000000e+0
vn -0.75163163 -0.65958313 0.0000000e+0
vn -0.75163163 -0.65958313 0.0000000e+0
vn 0.0000000e+0 1.00000000 0.0000000e+0
vn 0.0000000e+0 1.00000000 0.0000000e+0
vn 0.0000000e+0 1.00000000 0.0000000e+0
vn 0.0000000e+0 1.00000000 0.0000000e+0
vn -0.69060548 -0.69366885 -0.20466458
vn -0.69060548 -0.69366885 -0.20466458
vn 0.0000000e+0 1.00000000 0.0000000e+0
vn 0.0000000e+0 1.00000000 0.0000000e+0
vn -0.20466458 -0.69366885 -0.69060548
vn -0.20466458 -0.69366885 -0.69060548
vn 0.0000000e+0 1.00000000 0.0000000e+0
vn 0.0000000e+0 1.00000000 0.0000000e+0
vn -0.23645556 -0.66399375 -0.70936667
vn -0.23645556 -0.66399375 -0.70936667
vn -0.70936667 -0.66399375 -0.23645556
vn -0.70936667 -0.66399375 -0.23645556
vn -0.20466458 -0.69366885 0.69060548
vn -0.20466458 -0.69366885 0.69060548
vn 0.0000000e+0 1.00000000 0.0000000e+0
vn 0.0000000e+0 1.00000000 0.0000000e+0
vn -0.23645556 -0.66399375 0.70936667
vn -0.23645556 -0.66399375 0.70936667
vn -0.70936667 -0.66399375 0.23645556
vn -0.70936667 -0.66399375 0.23645556
vn 0.69060548 -0.69366885 -0.20466458
vn 0.69060548 -0.69366885 -0.20466458
vn 0.0000000e+0 1.00000000 0.0000000e+0
vn 0.0000000e+0 1.00000000 0.0000000e+0
vn 0.23645556 -0.66399375 -0.70936667
vn 0.23645556 -0.66399375 -0.70936667
vn 0.70936667 -0.66399375 -0.23645556
vn 0.70936667 -0.66399375 -0.23645556
vn 0.23645556 -0.66399375 0.70936667
vn 0.23645556 -0.66399375 0.70936667
vn 0.70936667 -0.66399375 0.23645556
vn 0.70936667 -0.66399375 0.23645556
vn 0.20563697 0.97628190 6.7728114e-2
vn 0.20563697 0.97628190 6.7728114e-2
vn 0.72886092 -0.66038723 0.18069441
vn 0.72886092 -0.66038723 0.18069441
vn 0.18069441 -0.66038723 0.72886092
vn 0.18069441 -0.66038723 0.72886092
vn 6.7728114e-2 0.97628190 0.20563697
vn 6.7728114e-2 0.97628190 0.20563697
vn 0.18069441 -0.66038723 -0.72886092
vn 0.18069441 -0.66038723 -0.72886092
vn 6.7728114e-2 0.97628190 -0.20563697
vn 6.7728114e-2 0.97628190 -0.20563697
vn -0.20563697 0.97628190 6.7728114e-2
vn -0.20563697 0.97628190 6.7728114e-2
vn -0.72886092 -0.66038723 0.18069441
vn -0.72886092 -0.66038723 0.18069441
vn -0.69060548 -0.69366885 0.20466458
vn -0.69060548 -0.69366885 0.20466458
vn 0.0000000e+0 1.00000000 0.0000000e+0
vn 0.0000000e+0 1.00000000 0.0000000e+0
vn 0.20466458 -0.69366885 -0.69060548
vn 0.20466458 -0.69366885 -0.69060548
vn 0.0000000e+0 1.00000000 0.0000000e+0
vn 0.0000000e+0 1.00000000 0.0000000e+0
vn -0.23645556 -0.66399375 -0.70936667
vn -0.23645556 -0.66399375 -0.70936667
vn -0.70936667 -0.66399375 -0.23645556
vn -0.70936667 -0.66399375 -0.23645556
vn 0.20466458 -0.69366885 0.69060548
vn 0.20466458 -0.69366885 0.69060548
vn 0.0000000e+0 1.00000000 0.0000000e+0
vn 0.0000000e+0 1.00000000 0.0000000e+0
vn -0.23645556 -0.66399375 0.70936667
vn -0.23645556 -0.66399375 0.70936667
vn -0.70936667 -0.66399375 0.23645556
vn -0.70936667 -0.66399375 0.23645556
vn 0.69060548 -0.69366885 0.20466458
vn 0.69060548 -0.69366885 0.20466458
vn 0.0000000e+0 1.00000000 0.0000000e+0
vn 0.0000000e+0 1.00000000 0.0000000e+0
vn 0.23645556 -0.66399375 -0.70936667
vn 0.23645556 -0.66399375 -0.70936667
vn 0.70936667 -0.66399375 -0.23645556
vn 0.70936667 -0.66399375 -0.23645556
vn 0.23645556 -0.66399375 0.70936667
vn 0.23645556 -0.66399375 0.70936667
vn 0.70936667 -0.66399375 0.23645556
vn 0.70936667 -0.66399375 0.23645556
vn 0.20563697 0.97628190 -6.7728114e-2
vn 0.20563697 0.97628190 -6.7728114e-2
vn 0.72886092 -0.66038723 -0.18069441
vn 0.72886092 -0.66038723 -0.18069441
vn -0.18069441 -0.66038723 0.72886092
vn -0.18069441 -0.66038723 0.72886092
vn -6.7728114e-2 0.97628190 0.20563697
vn -6.7728114e-2 0.97628190 0.20563697
vn -0.18069441 -0.66038723 -0.72886092
vn -0.18069441 -0.66038723 -0.72886092
vn -6.7728114e-2 0.97628190 -0.20563697
vn -6.7728114e-2 0.97628190 -0.20563697
vn -0.20563697 0.97628190 -6.7728114e-2
vn -0.20563697 0.97628190 -6.7728114e-2
vn -0.72886092 -0.66038723 -0.18069441
vn -0.72886092 -0.66038723 -0.18069441
vn 0.0000000e+0 1.00000000 0.0000000e+0
vn 0.0000000e+0 1.00000000 0.0000000e+0
vn 0.0000000e+0 1.00000000 0.0000000e+0
vn 0.0000000e+0 1.00000000 0.0000000e+0
vn 0.0000000e+0 1.00000000 0.0000000e+0
vn 0.0000000e+0 1.00000000 0.0000000e+0
vn 0.0000000e+0 1.00000000 0.0000000e+0
vn 0.0000000e+0 1.00000000 0.0000000e+0
vn 0.0000000e+0 1.00000000 0.0000000e+0
vn 0.0000000e+0 1.00000000 0.0000000e+0
vn 0.0000000e+0 1.00000000 0.0000000e+0
vn 0.0000000e+0 1.00000000 0.0000000e+0
vn 0.0000000e+0 1.00000000 0.0000000e+0
vn 0.0000000e+0 1.00000000 0.0000000e+0
vn 0.0000000e+0 1.00000000 0.0000000e+0
vn 0.0000000e+0 1.00000000 0.0000000e+0
g Cube1
usemtl default
s 1
f 3//106 49//195 138//89 47//185
f 4//109 67//233 139//90 51//203
f 7//113 68//239 152//103 55//207
f 11//128 71//251 140//91 61//231
f 12//131 81//279 141//92 69//243
f 18//133 47//186 138//89 103//58
f 18//134 103//58 139//90 67//234
f 19//140 116//292 152//103 68//240
f 22//151 51//204 139//90 104//59
f 22//152 104//59 140//91 71//252
f 26//155 55//208 152//103 117//293
f 32//179 61//232 140//91 105//60
f 32//180 105//60 141//92 81//280
f 38//18 103//58 138//89 102//57
f 38//18 104//59 139//90 103//58
f 38//18 105//60 140//91 104//59
f 41//183 117//294 152//103 116//291
f 69//244 141//92 102//57 20//144
f 102//57 138//89 49//196 20//143
f 102//57 141//92 105//60 38//18
s 2
f 8//116 75//255 153//104 70//247
f 20//141 49//194 131//82 96//51
f 20//142 96//51 132//83 69//241
f 26//156 117//296 153//104 75//256
f 36//16 95//50 130//81 94//49
f 36//16 96//51 131//82 95//50
f 36//16 97//52 132//83 96//51
f 48//190 131//82 49//193 3//105
f 56//210 130//81 68//237 7//111
f 60//226 133//84 76//257 10//122
f 68//238 130//81 95//50 19//137
f 69//242 132//83 80//273 12//130
f 70//248 153//104 114//283 21//148
f 76//258 133//84 94//49 27//158
f 80//274 132//83 97//52 31//173
f 94//49 130//81 56//209 27//157
f 94//49 133//84 97//52 36//16
f 95//50 131//82 48//189 19//138
f 97//52 133//84 60//225 31//174
f 114//284 153//104 117//295 41//184
s 3
f 4//108 51//201 122//73 50//197
f 8//114 70//245 123//74 57//213
f 9//117 77//261 124//75 59//221
f 11//126 79//269 125//76 71//249
f 19//139 48//192 151//102 116//289
f 21//145 50//198 122//73 87//42
f 21//146 87//42 123//74 70//246
f 28//161 57//214 123//74 88//43
f 28//162 88//43 124//75 77//262
f 30//169 59//222 124//75 89//44
f 30//170 89//44 125//76 79//270
f 34//14 87//42 122//73 86//41
f 34//14 88//43 123//74 87//42
f 34//14 89//44 124//75 88//43
f 41//182 116//290 151//102 115//288
f 47//188 151//102 48//191 3//107
f 71//250 125//76 86//41 22//150
f 86//41 122//73 51//202 22//149
f 86//41 125//76 89//44 34//14
f 115//287 151//102 47//187 18//136
s 4
f 27//159 56//212 143//94 108//63
f 27//160 108//63 144//95 76//259
f 39//19 107//62 142//93 106//61
f 39//19 108//63 143//94 107//62
f 39//19 109//64 144//95 108//63
f 41//181 115//286 150//101 114//282
f 50//200 150//101 67//235 4//110
f 55//206 143//94 56//211 7//112
f 57//216 142//93 75//253 8//115
f 58//220 145//96 77//263 9//120
f 67//236 150//101 115//285 18//135
f 75//254 142//93 107//62 26//153
f 76//260 144//95 78//267 10//123
f 77//264 145//96 106//61 28//164
f 78//268 144//95 109//64 29//167
f 106//61 142//93 57//215 28//163
f 106//61 145//96 109//64 39//19
f 107//62 143//94 55//205 26//154
f 109//64 145//96 58//219 29//168
f 114//281 150//101 50//199 21//147
s 5
f 1//1 44//23 146//97 43//22
f 5//3 53//27 126//77 52//26
f 5//3 63//30 147//98 53//27
f 6//4 72//34 127//78 54//28
f 9//118 74//36 128//79 58//217
f 10//124 73//35 148//99 60//227
f 10//121 78//265 129//80 73//35
f 12//132 80//275 149//100 64//31
f 14//6 43//22 146//97 111//66
f 14//6 111//66 147//98 63//30
f 15//7 44//23 119//70 84//39
f 15//7 84//39 120//71 64//31
f 17//9 46//25 135//86 100//55
f 17//9 100//55 136//87 66//33
f 23//10 52//26 126//77 91//46
f 23//10 91//46 127//78 72//34
f 24//11 53//27 147//98 112//67
f 24//11 112//67 148//99 73//35
f 25//12 54//28 127//78 92//47
f 25//12 92//47 128//79 74//36
f 29//165 58//218 128//79 93//48
f 29//166 93//48 129//80 78//266
f 31//175 60//228 148//99 113//68
f 31//176 113//68 149//100 80//276
f 33//13 83//38 118//69 82//37
f 33//13 84//39 119//70 83//38
f 33//13 85//40 120//71 84//39
f 35//15 91//46 126//77 90//45
f 35//15 92//47 127//78 91//46
f 35//15 93//48 128//79 92//47
f 37//17 99//54 134//85 98//53
f 37//17 100//55 135//86 99//54
f 37//17 101//56 136//87 100//55
f 40//20 111//66 146//97 110//65
f 40//20 112//67 147//98 111//66
f 40//20 113//68 148//99 112//67
f 42//21 119//70 44//23 1//1
f 45//24 135//86 46//25 2//2
f 46//25 118//69 62//29 2//2
f 54//28 134//85 65//32 6//4
f 59//224 137//88 74//36 9//119
f 61//230 121//72 66//33 11//125
f 62//29 118//69 83//38 13//5
f 64//31 120//71 81//277 12//129
f 64//31 149//100 110//65 15//7
f 65//32 134//85 99//54 16//8
f 66//33 121//72 82//37 17//9
f 66//33 136//87 79//271 11//127
f 73//35 129//80 90//45 24//11
f 74//36 137//88 98//53 25//12
f 79//272 136//87 101//56 30//171
f 81//278 120//71 85//40 32//177
f 82//37 118//69 46//25 17//9
f 82//37 121//72 85//40 33//13
f 83//38 119//70 42//21 13//5
f 85//40 121//72 61//229 32//178
f 90//45 126//77 53//27 24//11
f 90//45 129//80 93//48 35//15
f 98//53 134//85 54//28 25//12
f 98//53 137//88 101//56 37//17
f 99//54 135//86 45//24 16//8
f 101//56 137//88 59//223 30//172
f 110//65 146//97 44//23 15//7
f 110//65 149//100 113//68 40//20
