# Exported from Wings 3D 2.2.6.1
mtllib Pyramid Hole.mtl
o Cube1
#8 vertices, 4 faces
v -2.03400000 -1.00000000 -2.03400000
v -2.03400000 -1.00000000 2.03400000
v 2.03400000 -1.00000000 -2.03400000
v 2.03400000 -1.00000000 2.03400000
v 0.36200000 -0.65777778 0.36200000
v 0.36200000 -0.65777778 -0.36200000
v -0.36200000 -0.65777778 0.36200000
v -0.36200000 -0.65777778 -0.36200000
vn 0.0000000e+0 0.97968936 -0.20052121
vn -0.20052121 0.97968936 0.0000000e+0
vn -0.20052121 0.97968936 0.0000000e+0
vn 0.0000000e+0 0.97968936 0.20052121
vn 0.0000000e+0 0.97968936 -0.20052121
vn 0.20052121 0.97968936 0.0000000e+0
vn 0.0000000e+0 0.97968936 0.20052121
vn 0.20052121 0.97968936 0.0000000e+0
vn 0.0000000e+0 0.97968936 0.20052121
vn 0.20052121 0.97968936 0.0000000e+0
vn 0.0000000e+0 0.97968936 -0.20052121
vn 0.20052121 0.97968936 0.0000000e+0
vn -0.20052121 0.97968936 0.0000000e+0
vn 0.0000000e+0 0.97968936 0.20052121
vn 0.0000000e+0 0.97968936 -0.20052121
vn -0.20052121 0.97968936 0.0000000e+0
g Cube1
usemtl default
s 1
f 2//3 7//13 8//16 1//2
f 3//6 6//12 5//10 4//8
s 2
f 1//1 8//15 6//11 3//5
f 4//7 5//9 7//14 2//4
