# Exported from Wings 3D 2.2.6.1
mtllib Round Flat Floor.mtl
o Cube1
#81 vertices, 64 faces
v -4.21875000 0.0000000e+0 -4.21875000
v -4.21875000 0.0000000e+0 4.21875000
v 4.21875000 0.0000000e+0 -4.21875000
v 4.21875000 0.0000000e+0 4.21875000
v 0.0000000e+0 0.0000000e+0 5.00000000
v 0.0000000e+0 0.0000000e+0 -5.00000000
v 0.0000000e+0 0.0000000e+0 0.0000000e+0
v 5.00000000 0.0000000e+0 0.0000000e+0
v -5.00000000 0.0000000e+0 0.0000000e+0
v -4.92187500 0.0000000e+0 -2.42187500
v -2.42187500 0.0000000e+0 -4.92187500
v -2.42187500 0.0000000e+0 4.92187500
v 4.92187500 0.0000000e+0 -2.42187500
v 2.42187500 0.0000000e+0 4.92187500
v 2.42187500 0.0000000e+0 -4.92187500
v 0.0000000e+0 0.0000000e+0 -2.50000000
v 0.0000000e+0 0.0000000e+0 2.50000000
v 4.92187500 0.0000000e+0 2.42187500
v -4.92187500 0.0000000e+0 2.42187500
v -2.50000000 0.0000000e+0 0.0000000e+0
v 2.50000000 0.0000000e+0 0.0000000e+0
v -2.49023438 0.0000000e+0 -2.49023438
v 2.49023438 0.0000000e+0 2.49023438
v -2.49023438 0.0000000e+0 2.49023438
v 2.49023438 0.0000000e+0 -2.49023438
v -4.68750000 0.0000000e+0 -3.43750000
v -3.43750000 0.0000000e+0 -4.68750000
v -3.43750000 0.0000000e+0 4.68750000
v 4.68750000 0.0000000e+0 -3.43750000
v 1.25000000 0.0000000e+0 5.00000000
v 1.25000000 0.0000000e+0 -5.00000000
v 0.0000000e+0 0.0000000e+0 -3.75000000
v 0.0000000e+0 0.0000000e+0 1.25000000
v 5.00000000 0.0000000e+0 1.25000000
v -5.00000000 0.0000000e+0 1.25000000
v -1.25000000 0.0000000e+0 0.0000000e+0
v 1.25000000 0.0000000e+0 0.0000000e+0
v -5.00000000 0.0000000e+0 -1.25000000
v -1.25000000 0.0000000e+0 -5.00000000
v -1.25000000 0.0000000e+0 5.00000000
v 5.00000000 0.0000000e+0 -1.25000000
v 3.43750000 0.0000000e+0 4.68750000
v 3.43750000 0.0000000e+0 -4.68750000
v 0.0000000e+0 0.0000000e+0 -1.25000000
v 0.0000000e+0 0.0000000e+0 3.75000000
v 4.68750000 0.0000000e+0 3.43750000
v -4.68750000 0.0000000e+0 3.43750000
v -3.75000000 0.0000000e+0 0.0000000e+0
v 3.75000000 0.0000000e+0 0.0000000e+0
v -2.50000000 0.0000000e+0 -1.25000000
v -3.71093750 0.0000000e+0 -2.46093750
v -2.46093750 0.0000000e+0 -3.71093750
v -1.25000000 0.0000000e+0 -2.50000000
v 3.71093750 0.0000000e+0 2.46093750
v 2.46093750 0.0000000e+0 3.71093750
v 1.25000000 0.0000000e+0 2.50000000
v 2.50000000 0.0000000e+0 1.25000000
v -1.25000000 0.0000000e+0 2.50000000
v -2.46093750 0.0000000e+0 3.71093750
v -3.71093750 0.0000000e+0 2.46093750
v -2.50000000 0.0000000e+0 1.25000000
v 2.46093750 0.0000000e+0 -3.71093750
v 3.71093750 0.0000000e+0 -2.46093750
v 2.50000000 0.0000000e+0 -1.25000000
v 1.25000000 0.0000000e+0 -2.50000000
v -3.75000000 0.0000000e+0 -1.25000000
v -3.59375000 0.0000000e+0 -3.59375000
v -1.25000000 0.0000000e+0 -3.75000000
v -1.25000000 0.0000000e+0 -1.25000000
v 3.59375000 0.0000000e+0 3.59375000
v 1.25000000 0.0000000e+0 3.75000000
v 1.25000000 0.0000000e+0 1.25000000
v 3.75000000 0.0000000e+0 1.25000000
v -1.25000000 0.0000000e+0 3.75000000
v -3.59375000 0.0000000e+0 3.59375000
v -3.75000000 0.0000000e+0 1.25000000
v -1.25000000 0.0000000e+0 1.25000000
v 3.59375000 0.0000000e+0 -3.59375000
v 3.75000000 0.0000000e+0 -1.25000000
v 1.25000000 0.0000000e+0 -1.25000000
v 1.25000000 0.0000000e+0 -3.75000000
vn 0.0000000e+0 1.00000000 0.0000000e+0
vn 0.0000000e+0 1.00000000 0.0000000e+0
vn 0.0000000e+0 1.00000000 0.0000000e+0
vn 0.0000000e+0 1.00000000 0.0000000e+0
vn 0.0000000e+0 1.00000000 0.0000000e+0
vn 0.0000000e+0 1.00000000 0.0000000e+0
vn 0.0000000e+0 1.00000000 0.0000000e+0
vn 0.0000000e+0 1.00000000 0.0000000e+0
vn 0.0000000e+0 1.00000000 0.0000000e+0
vn 0.0000000e+0 1.00000000 0.0000000e+0
vn 0.0000000e+0 1.00000000 0.0000000e+0
vn 0.0000000e+0 1.00000000 0.0000000e+0
vn 0.0000000e+0 1.00000000 0.0000000e+0
vn 0.0000000e+0 1.00000000 0.0000000e+0
vn 0.0000000e+0 1.00000000 0.0000000e+0
vn 0.0000000e+0 1.00000000 0.0000000e+0
vn 0.0000000e+0 1.00000000 0.0000000e+0
vn 0.0000000e+0 1.00000000 0.0000000e+0
vn 0.0000000e+0 1.00000000 0.0000000e+0
vn 0.0000000e+0 1.00000000 0.0000000e+0
vn 0.0000000e+0 1.00000000 0.0000000e+0
vn 0.0000000e+0 1.00000000 0.0000000e+0
vn 0.0000000e+0 1.00000000 0.0000000e+0
vn 0.0000000e+0 1.00000000 0.0000000e+0
vn 0.0000000e+0 1.00000000 0.0000000e+0
vn 0.0000000e+0 1.00000000 0.0000000e+0
vn 0.0000000e+0 1.00000000 0.0000000e+0
vn 0.0000000e+0 1.00000000 0.0000000e+0
vn 0.0000000e+0 1.00000000 0.0000000e+0
vn 0.0000000e+0 1.00000000 0.0000000e+0
vn 0.0000000e+0 1.00000000 0.0000000e+0
vn 0.0000000e+0 1.00000000 0.0000000e+0
vn 0.0000000e+0 1.00000000 0.0000000e+0
vn 0.0000000e+0 1.00000000 0.0000000e+0
vn 0.0000000e+0 1.00000000 0.0000000e+0
vn 0.0000000e+0 1.00000000 0.0000000e+0
vn 0.0000000e+0 1.00000000 0.0000000e+0
vn 0.0000000e+0 1.00000000 0.0000000e+0
vn 0.0000000e+0 1.00000000 0.0000000e+0
vn 0.0000000e+0 1.00000000 0.0000000e+0
vn 0.0000000e+0 1.00000000 0.0000000e+0
vn 0.0000000e+0 1.00000000 0.0000000e+0
vn 0.0000000e+0 1.00000000 0.0000000e+0
vn 0.0000000e+0 1.00000000 0.0000000e+0
vn 0.0000000e+0 1.00000000 0.0000000e+0
vn 0.0000000e+0 1.00000000 0.0000000e+0
vn 0.0000000e+0 1.00000000 0.0000000e+0
vn 0.0000000e+0 1.00000000 0.0000000e+0
vn 0.0000000e+0 1.00000000 0.0000000e+0
vn 0.0000000e+0 1.00000000 0.0000000e+0
vn 0.0000000e+0 1.00000000 0.0000000e+0
vn 0.0000000e+0 1.00000000 0.0000000e+0
vn 0.0000000e+0 1.00000000 0.0000000e+0
vn 0.0000000e+0 1.00000000 0.0000000e+0
vn 0.0000000e+0 1.00000000 0.0000000e+0
vn 0.0000000e+0 1.00000000 0.0000000e+0
vn 0.0000000e+0 1.00000000 0.0000000e+0
vn 0.0000000e+0 1.00000000 0.0000000e+0
vn 0.0000000e+0 1.00000000 0.0000000e+0
vn 0.0000000e+0 1.00000000 0.0000000e+0
vn 0.0000000e+0 1.00000000 0.0000000e+0
vn 0.0000000e+0 1.00000000 0.0000000e+0
vn 0.0000000e+0 1.00000000 0.0000000e+0
vn 0.0000000e+0 1.00000000 0.0000000e+0
vn 0.0000000e+0 1.00000000 0.0000000e+0
vn 0.0000000e+0 1.00000000 0.0000000e+0
vn 0.0000000e+0 1.00000000 0.0000000e+0
vn 0.0000000e+0 1.00000000 0.0000000e+0
vn 0.0000000e+0 1.00000000 0.0000000e+0
vn 0.0000000e+0 1.00000000 0.0000000e+0
vn 0.0000000e+0 1.00000000 0.0000000e+0
vn 0.0000000e+0 1.00000000 0.0000000e+0
vn 0.0000000e+0 1.00000000 0.0000000e+0
vn 0.0000000e+0 1.00000000 0.0000000e+0
vn 0.0000000e+0 1.00000000 0.0000000e+0
vn 0.0000000e+0 1.00000000 0.0000000e+0
vn 0.0000000e+0 1.00000000 0.0000000e+0
vn 0.0000000e+0 1.00000000 0.0000000e+0
vn 0.0000000e+0 1.00000000 0.0000000e+0
vn 0.0000000e+0 1.00000000 0.0000000e+0
vn 0.0000000e+0 1.00000000 0.0000000e+0
g Cube1
usemtl default
s 1
f 3//3 43//43 78//78 29//29
f 4//4 46//46 70//70 42//42
f 5//5 45//45 74//74 40//40
f 6//6 32//32 81//81 31//31
f 6//6 39//39 68//68 32//32
f 7//7 36//36 77//77 33//33
f 7//7 44//44 69//69 36//36
f 8//8 49//49 73//73 34//34
f 9//9 48//48 66//66 38//38
f 11//11 27//27 67//67 52//52
f 11//11 52//52 68//68 39//39
f 13//13 29//29 78//78 63//63
f 13//13 63//63 79//79 41//41
f 15//15 31//31 81//81 62//62
f 15//15 62//62 78//78 43//43
f 16//16 32//32 68//68 53//53
f 16//16 53//53 69//69 44//44
f 17//17 33//33 77//77 58//58
f 17//17 58//58 74//74 45//45
f 18//18 34//34 73//73 54//54
f 18//18 54//54 70//70 46//46
f 20//20 36//36 69//69 50//50
f 20//20 50//50 66//66 48//48
f 21//21 37//37 72//72 57//57
f 21//21 57//57 73//73 49//49
f 22//22 51//51 66//66 50//50
f 22//22 52//52 67//67 51//51
f 22//22 53//53 68//68 52//52
f 23//23 55//55 70//70 54//54
f 23//23 56//56 71//71 55//55
f 23//23 57//57 72//72 56//56
f 24//24 59//59 74//74 58//58
f 24//24 60//60 75//75 59//59
f 24//24 61//61 76//76 60//60
f 25//25 63//63 78//78 62//62
f 25//25 64//64 79//79 63//63
f 25//25 65//65 80//80 64//64
f 26//26 67//67 27//27 1//1
f 28//28 75//75 47//47 2//2
f 30//30 71//71 45//45 5//5
f 33//33 72//72 37//37 7//7
f 35//35 76//76 48//48 9//9
f 37//37 80//80 44//44 7//7
f 38//38 66//66 51//51 10//10
f 40//40 74//74 59//59 12//12
f 41//41 79//79 49//49 8//8
f 42//42 70//70 55//55 14//14
f 44//44 80//80 65//65 16//16
f 45//45 71//71 56//56 17//17
f 47//47 75//75 60//60 19//19
f 48//48 76//76 61//61 20//20
f 49//49 79//79 64//64 21//21
f 50//50 69//69 53//53 22//22
f 51//51 67//67 26//26 10//10
f 54//54 73//73 57//57 23//23
f 55//55 71//71 30//30 14//14
f 56//56 72//72 33//33 17//17
f 58//58 77//77 61//61 24//24
f 59//59 75//75 28//28 12//12
f 60//60 76//76 35//35 19//19
f 61//61 77//77 36//36 20//20
f 62//62 81//81 65//65 25//25
f 64//64 80//80 37//37 21//21
f 65//65 81//81 32//32 16//16
