# Exported from Wings 3D 2.2.6.1
mtllib Shape.mtl
o Cube1
#98 vertices, 96 faces
v -0.47819510 -0.49694377 -0.44841211
v -0.56880435 -0.48368232 0.46162602
v -0.55242419 0.52917843 -0.58462905
v -0.39138192 0.40414417 0.37543743
v 0.35401707 -0.29746229 -0.39046932
v 0.51088599 -0.56694666 0.46642255
v 0.49328093 0.49176679 -0.44922487
v 0.55084027 0.43942105 0.41750135
v -0.58043115 -0.68712935 1.9915074e-3
v -0.56740246 -4.6203417e-2 -0.65694329
v -5.0615027e-2 -0.58589441 -0.57996355
v -0.52500862 -3.2486731e-2 0.61374758
v -2.6915034e-2 -0.53693072 0.62257154
v -0.55613416 0.55545978 6.4090189e-2
v -2.9426314e-2 0.73740566 -0.64164916
v 5.3126935e-3 0.53768893 0.47386723
v 0.48627814 -0.64561283 -3.8635003e-2
v 0.47117737 0.16087499 -0.41279132
v 0.56672154 -6.3261184e-2 0.65030601
v 0.51892306 0.56260848 -5.4569801e-2
v -3.1675443e-2 0.77375891 -3.3706428e-2
v -8.9840505e-2 -0.96094005 -0.11091698
v 6.1211631e-3 3.8686314e-3 0.67955313
v -2.4969853e-2 2.8438893e-2 -0.83446576
v 0.67132673 0.16127449 -4.9864068e-3
v -0.67797800 5.6566572e-2 3.8837917e-2
v -0.54794440 -0.60813995 -0.28761961
v -0.57771527 -0.29203341 -0.54979975
v -0.33614812 -0.54332851 -0.52315359
v -0.61856320 -0.29344979 0.61888849
v -0.41576349 -0.51324116 0.54681771
v -0.58350124 0.55869078 -0.27474006
v -0.30802475 0.62999602 -0.57956020
v -0.23724216 0.54930371 0.53441903
v 0.54003219 -0.40701827 -0.22586305
v 0.48196193 -0.21388103 -0.37051745
v 0.53100259 -0.41479425 0.62061086
v 0.55103031 0.50597313 -0.34842425
v -0.62361694 -0.60908411 0.34796247
v -0.60655234 0.35500430 -0.54141190
v 0.21715569 -0.39944898 -0.47474583
v -0.54546983 0.29084550 0.57793430
v 0.26458815 -0.59445630 0.56557102
v -0.50936950 0.50362192 0.27523959
v 0.29744584 0.60020188 -0.55170625
v 0.27446935 0.48644985 0.46941398
v 0.44760390 -0.63238737 0.27372052
v 0.38300242 0.33808806 -0.42803869
v 0.61145353 0.24152382 0.53732899
v 0.62724251 0.52644956 0.29651395
v 5.8025591e-2 0.69580498 0.28088362
v -0.22782651 0.66346638 -3.0904000e-2
v -7.6772730e-2 0.83463307 -0.33330926
v 0.23784006 0.70355315 -1.0366040e-3
v -6.0026721e-2 -0.72951571 -0.29663483
v -0.42889288 -0.90211583 9.5488141e-2
v -7.3374649e-2 -0.80378125 0.35849702
v 0.27120377 -0.79297745 3.6503239e-2
v -9.2830731e-3 -0.26266524 0.72052743
v -0.36755744 6.0261436e-2 0.64486936
v -3.9786539e-2 0.24323145 0.53437021
v 0.24549533 -2.0575850e-2 0.75261200
v -5.7403360e-2 0.34363782 -0.83364549
v -0.34990576 -6.7053352e-2 -0.75093580
v -5.6758747e-2 -0.17015781 -0.69013404
v 0.26520617 1.6040052e-2 -0.68488076
v 0.57863158 0.13222555 -0.31116337
v 0.65774549 -0.30223547 -7.9375774e-3
v 0.70851053 -2.4801279e-2 0.32038138
v 0.68797461 0.39618114 -4.5071947e-2
v -0.75850518 -7.8016231e-2 0.37083829
v -0.70550465 -0.26556007 5.5518250e-3
v -0.81026039 0.14662054 -0.37540553
v -0.79592356 0.35895386 4.3499245e-2
v -0.16149564 0.61987463 0.27460285
v -0.40762464 0.77715491 -0.36203109
v 0.39092599 0.77875983 -0.37533507
v 0.28536203 0.66074319 0.27104480
v -0.32810550 -0.84942664 -0.29950753
v -0.39119544 -0.77100065 0.33472018
v 0.26157327 -0.82420842 0.34603445
v 0.27037997 -0.70018850 -0.26687642
v -0.32923506 -0.21202393 0.61551197
v -0.34863948 0.33348984 0.70980747
v 0.25191596 0.21438253 0.57105932
v 0.39534456 -0.30723364 0.81338456
v -0.36930696 0.33221223 -0.79368079
v -0.33049576 -0.29075759 -0.75527297
v 0.28492450 -0.18946473 -0.62947180
v 0.29382360 0.34942097 -0.70293664
v 0.52331402 -0.27067603 -0.21499937
v 0.63109560 -0.35000155 0.26466294
v 0.78583483 0.34987863 0.29158094
v 0.52590833 0.34864551 -0.22556142
v -0.62008596 -0.28400935 0.34567888
v -0.69569298 -0.22168634 -0.26090987
v -0.76142381 0.42404865 -0.33510654
v -0.61644000 0.23243546 0.27054977
vn -0.65259199 -0.50323890 -0.56645767
vn -0.57973267 -0.43067313 0.69168683
vn -0.62208978 0.57464082 -0.53178213
vn -0.60035738 0.72196031 0.34401209
vn 0.64816487 -0.42412061 -0.63245870
vn 0.63196674 -0.66296624 0.40136494
vn 0.79025873 -5.4580898e-2 -0.61033766
vn 0.31637913 0.57411807 0.75517726
vn -0.88319005 -0.46832162 -2.5498914e-2
vn -0.70770968 -7.5698417e-2 -0.70243631
vn 0.21668252 -0.58289897 -0.78312034
vn -0.62605052 1.9057248e-2 0.77954960
vn -0.13955253 -0.53386405 0.83397498
vn -0.53195720 0.79312175 0.29661327
vn 2.3267689e-2 0.70778030 -0.70604933
vn 0.13019856 0.59547842 0.79275077
vn 0.79505129 -0.58054310 -0.17567911
vn 0.82659638 5.9744422e-2 -0.55961507
vn 0.72049853 9.6476778e-2 0.68671253
vn 0.72228019 0.68907020 -5.9106526e-2
vn -8.5877710e-2 0.96184199 0.25977876
vn 0.12253440 -0.98576040 -0.11515965
vn -8.1488269e-2 0.22224876 0.97157869
vn 0.14877167 -0.21918798 -0.96427362
vn 0.94977814 -7.2272691e-2 -0.30446370
vn -0.99017251 -9.1192380e-2 0.10602991
vn -0.79331203 -0.48188222 -0.37208272
vn -0.71733188 -0.37769662 -0.58547437
vn -0.25736499 -0.60674112 -0.75208275
vn -0.61729959 -0.21029553 0.75810092
vn -0.24488255 -0.47778005 0.84365796
vn -0.63665983 0.76377571 -0.10635278
vn -0.41245498 0.64435067 -0.64396669
vn -0.22849518 0.78691387 0.57319849
vn 0.72152527 -0.40697564 -0.56015365
vn 0.76636614 -0.28331499 -0.57655490
vn 0.78500516 -0.34082251 0.51730737
vn 0.89745493 0.26006725 -0.35628595
vn -0.84418012 -0.42302440 0.32925717
vn -0.65937173 0.30410880 -0.68756582
vn 0.49265039 -0.52396646 -0.69480554
vn -0.70715073 0.45073902 0.54476801
vn 0.19835138 -0.68959572 0.69650160
vn -0.55577218 0.72541081 0.40607443
vn 0.55584732 0.44510027 -0.70208226
vn 0.13048099 0.56094697 0.81750425
vn 0.76490148 -0.62584058 0.15247722
vn 0.82775468 -3.0628521e-2 -0.56025359
vn 0.48122582 0.37156272 0.79395394
vn 0.52734556 0.78376670 0.32804941
vn -3.2552919e-2 0.91700297 0.39754981
vn -0.35564415 0.88957240 0.28666736
vn -4.3381703e-2 0.99302807 -0.10960515
vn 0.37262838 0.91520198 0.15347128
vn 0.18414564 -0.79467947 -0.57842452
vn -0.43634888 -0.89929442 -2.9482403e-2
vn -3.0215734e-3 -0.85373395 0.52070069
vn 0.47608354 -0.85807984 -0.19246675
vn -0.20937716 -0.15209579 0.96593379
vn -0.10636447 2.2964314e-2 0.99406199
vn 0.13562675 0.32839860 0.93475117
vn 0.10874068 0.34331808 0.93290308
vn 8.9921643e-2 0.23122424 -0.96873601
vn -0.32551839 -0.14455234 -0.93442089
vn 0.19339715 -0.40313584 -0.89447137
vn 0.62833443 -0.11933026 -0.76873671
vn 0.85832688 5.7557721e-2 -0.50986476
vn 0.94757219 -0.25282872 -0.19540879
vn 0.98287140 -0.14121738 0.11841222
vn 0.91888705 0.24061374 -0.31265255
vn -0.96475292 5.9519555e-3 0.26309004
vn -0.98039620 -0.19660958 1.2960417e-2
vn -0.96894358 -9.8206170e-2 -0.22694469
vn -0.90808052 0.33238915 0.25476895
vn -0.32285335 0.88149074 0.34458641
vn -0.43884642 0.89671467 -5.7590128e-2
vn 0.50220866 0.84018493 -0.20463565
vn 0.26131965 0.88311142 0.38964890
vn -0.35509430 -0.75659640 -0.54906277
vn -0.34908202 -0.75786775 0.55116079
vn 0.36904598 -0.85600300 0.36202752
vn 0.49054751 -0.64209075 -0.58913717
vn -0.15888280 -0.16778932 0.97293525
vn -0.11026045 0.35776527 0.92727916
vn 4.7686032e-2 0.43649376 0.89844268
vn 0.16120501 -0.27088935 0.94901628
vn -0.39342929 0.22916096 -0.89033626
vn -0.24045555 -0.40951773 -0.88004338
vn 0.54043498 -0.40334889 -0.73840348
vn 0.64315436 0.11863910 -0.75649007
vn 0.84827133 -0.19880368 -0.49082873
vn 0.94381817 -0.31677203 9.4142181e-2
vn 0.93094198 0.29124713 0.22027739
vn 0.87192829 6.3924807e-2 -0.48544276
vn -0.97458202 -0.15462525 0.16211393
vn -0.93648557 -0.28702949 -0.20151638
vn -0.88139777 0.39844023 -0.25373875
vn -0.83186302 0.37841844 0.40595984
g Cube1
usemtl default
s 1
f 1//1 29//29 79//79 27//27
f 2//2 31//31 83//83 30//30
f 2//2 39//39 80//80 31//31
f 3//3 40//40 97//97 32//32
f 4//4 42//42 84//84 34//34
f 4//4 44//44 98//98 42//42
f 5//5 36//36 91//91 35//35
f 5//5 41//41 89//89 36//36
f 6//6 47//47 92//92 37//37
f 7//7 45//45 77//77 38//38
f 7//7 48//48 90//90 45//45
f 8//8 50//50 78//78 46//46
f 9//9 27//27 79//79 56//56
f 9//9 56//56 80//80 39//39
f 10//10 28//28 96//96 73//73
f 10//10 73//73 97//97 40//40
f 11//11 29//29 88//88 65//65
f 11//11 65//65 89//89 41//41
f 12//12 30//30 83//83 60//60
f 12//12 60//60 84//84 42//42
f 13//13 31//31 80//80 57//57
f 13//13 57//57 81//81 43//43
f 14//14 32//32 97//97 74//74
f 14//14 74//74 98//98 44//44
f 15//15 33//33 76//76 53//53
f 15//15 53//53 77//77 45//45
f 16//16 34//34 84//84 61//61
f 16//16 61//61 85//85 46//46
f 17//17 35//35 91//91 68//68
f 17//17 68//68 92//92 47//47
f 18//18 36//36 89//89 66//66
f 18//18 66//66 90//90 48//48
f 19//19 37//37 92//92 69//69
f 19//19 69//69 93//93 49//49
f 20//20 38//38 77//77 54//54
f 20//20 54//54 78//78 50//50
f 21//21 52//52 75//75 51//51
f 21//21 53//53 76//76 52//52
f 21//21 54//54 77//77 53//53
f 22//22 56//56 79//79 55//55
f 22//22 57//57 80//80 56//56
f 22//22 58//58 81//81 57//57
f 23//23 60//60 83//83 59//59
f 23//23 61//61 84//84 60//60
f 23//23 62//62 85//85 61//61
f 24//24 64//64 87//87 63//63
f 24//24 65//65 88//88 64//64
f 24//24 66//66 89//89 65//65
f 25//25 68//68 91//91 67//67
f 25//25 69//69 92//92 68//68
f 25//25 70//70 93//93 69//69
f 26//26 72//72 95//95 71//71
f 26//26 73//73 96//96 72//72
f 26//26 74//74 97//97 73//73
f 27//27 96//96 28//28 1//1
f 28//28 88//88 29//29 1//1
f 30//30 95//95 39//39 2//2
f 32//32 76//76 33//33 3//3
f 33//33 87//87 40//40 3//3
f 34//34 75//75 44//44 4//4
f 35//35 82//82 41//41 5//5
f 37//37 86//86 43//43 6//6
f 38//38 94//94 48//48 7//7
f 39//39 95//95 72//72 9//9
f 40//40 87//87 64//64 10//10
f 41//41 82//82 55//55 11//11
f 42//42 98//98 71//71 12//12
f 43//43 81//81 47//47 6//6
f 43//43 86//86 59//59 13//13
f 44//44 75//75 52//52 14//14
f 45//45 90//90 63//63 15//15
f 46//46 78//78 51//51 16//16
f 46//46 85//85 49//49 8//8
f 47//47 81//81 58//58 17//17
f 48//48 94//94 67//67 18//18
f 49//49 85//85 62//62 19//19
f 49//49 93//93 50//50 8//8
f 50//50 93//93 70//70 20//20
f 51//51 75//75 34//34 16//16
f 51//51 78//78 54//54 21//21
f 52//52 76//76 32//32 14//14
f 55//55 79//79 29//29 11//11
f 55//55 82//82 58//58 22//22
f 58//58 82//82 35//35 17//17
f 59//59 83//83 31//31 13//13
f 59//59 86//86 62//62 23//23
f 62//62 86//86 37//37 19//19
f 63//63 87//87 33//33 15//15
f 63//63 90//90 66//66 24//24
f 64//64 88//88 28//28 10//10
f 67//67 91//91 36//36 18//18
f 67//67 94//94 70//70 25//25
f 70//70 94//94 38//38 20//20
f 71//71 95//95 30//30 12//12
f 71//71 98//98 74//74 26//26
f 72//72 96//96 27//27 9//9
