# Exported from Wings 3D 2.2.6.1
mtllib Top of Octotoad.mtl
o octotoad1
#12 vertices, 9 faces
v 0.42600000 0.20623556 0.14200000
v 0.42600000 0.20623556 -0.14200000
v -0.42600000 0.20623556 0.14200000
v -0.42600000 0.20623556 -0.14200000
v 0.14200000 1.25419556 0.14200000
v 0.14200000 1.25419556 -0.14200000
v 0.14200000 0.20623556 0.42600000
v 0.14200000 0.20623556 -0.42600000
v -0.14200000 1.25419556 0.14200000
v -0.14200000 1.25419556 -0.14200000
v -0.14200000 0.20623556 0.42600000
v -0.14200000 0.20623556 -0.42600000
vn 0.96518511 0.26156778 0.0000000e+0
vn 0.69447082 0.18820348 0.69447082
vn 0.96518511 0.26156778 0.0000000e+0
vn 0.69447082 0.18820348 -0.69447082
vn -0.96518511 0.26156778 0.0000000e+0
vn -0.69447082 0.18820348 0.69447082
vn -0.96518511 0.26156778 0.0000000e+0
vn -0.69447082 0.18820348 -0.69447082
vn 0.96518511 0.26156778 0.0000000e+0
vn 0.69447082 0.18820348 0.69447082
vn 0.0000000e+0 0.26156778 0.96518511
vn 0.0000000e+0 1.00000000 0.0000000e+0
vn 0.96518511 0.26156778 0.0000000e+0
vn 0.69447082 0.18820348 -0.69447082
vn 0.0000000e+0 1.00000000 0.0000000e+0
vn 0.0000000e+0 0.26156778 -0.96518511
vn 0.69447082 0.18820348 0.69447082
vn 0.0000000e+0 0.26156778 0.96518511
vn 0.69447082 0.18820348 -0.69447082
vn 0.0000000e+0 0.26156778 -0.96518511
vn -0.96518511 0.26156778 0.0000000e+0
vn 0.0000000e+0 0.26156778 0.96518511
vn 0.0000000e+0 1.00000000 0.0000000e+0
vn -0.69447082 0.18820348 0.69447082
vn -0.96518511 0.26156778 0.0000000e+0
vn 0.0000000e+0 1.00000000 0.0000000e+0
vn -0.69447082 0.18820348 -0.69447082
vn 0.0000000e+0 0.26156778 -0.96518511
vn 0.0000000e+0 0.26156778 0.96518511
vn -0.69447082 0.18820348 0.69447082
vn -0.69447082 0.18820348 -0.69447082
vn 0.0000000e+0 0.26156778 -0.96518511
g octotoad1
usemtl default
s 1
f 2//3 6//13 5//9 1//1
f 3//5 9//21 10//25 4//7
f 5//11 9//22 11//29 7//18
f 8//20 12//32 10//28 6//16
s 2
f 2//4 8//19 6//14
f 3//6 11//30 9//24
f 5//10 7//17 1//2
f 6//15 10//26 9//23 5//12
f 10//27 12//31 4//8
