# Exported from Wings 3D 2.2.9
mtllib Tricky Corners.mtl
o Cube1_copy3
#5 vertices, 3 faces
v 2.41848736 -5.0046199e-2 -0.48220017
v 2.64681191 -0.12409833 -1.41961624
v 2.31452331 0.39507544 -1.40689740
v 2.00732079 -0.33460575 -0.46027998
v 2.78687121 -0.30278103 -0.25981798
vn -0.24225394 0.41750195 0.87578830
vn -0.56470889 0.80049417 -0.20078086
vn 0.36273398 0.85495861 0.37076924
vn -0.56470889 0.80049417 -0.20078086
vn 0.36273398 0.85495861 0.37076924
vn -0.24225394 0.41750195 0.87578830
vn -0.56470889 0.80049417 -0.20078086
vn -0.24225394 0.41750195 0.87578830
vn 0.36273398 0.85495861 0.37076924
g Cube1_copy3_default
usemtl default
s 1
f 1//3 5//9 3//5
f 2//4 4//7 1//2
s 3
f 1//1 4//6 5//8
o Cube1
#5 vertices, 3 faces
v 0.58737944 -1.3171732e-3 -1.35829026
v -8.9926365e-2 0.11736849 -2.57236223
v 3.0124469e-2 0.55096331 -1.57583568
v 0.35482350 -0.53091513 -1.28026369
v 0.70152535 -0.49810626 -1.01437779
vn -0.58813515 0.36462038 0.72190652
vn -0.77817779 0.41160106 0.47436684
vn -0.28899605 -0.58890459 -0.75476664
vn -0.77817779 0.41160106 0.47436684
vn -0.28899605 -0.58890459 -0.75476664
vn -0.58813515 0.36462038 0.72190652
vn -0.77817779 0.41160106 0.47436684
vn -0.58813515 0.36462038 0.72190652
vn -0.28899605 -0.58890459 -0.75476664
g Cube1_default
usemtl default
s 1
f 6//12 10//18 8//14
f 7//13 9//16 6//11
s 3
f 6//10 9//15 10//17
