# Exported from Wings 3D 2.2.6.1
mtllib weird shape.mtl
o Cube1
#11 vertices, 9 faces
v -1.30978097 0.28229475 -1.44143353
v -1.65192717 0.62337403 1.27369317
v 0.93908828 -9.4556345e-2 -1.43685639
v 1.11107437 3.7937066e-2 -3.5986541e-2
v 1.8312750e-4 -2.4281589e-2 0.13273994
v -0.43760752 -3.7547327e-2 -0.83151601
v 0.48449062 0.53079355 -1.10360725
v -0.67026183 -0.13535055 1.21194608
v 0.24051349 -0.12808111 0.59798055
v 1.05584719 0.31388076 -0.81500205
v 0.83646536 -0.32060302 0.34557752
vn 0.47044949 0.85317256 -0.22533058
vn 0.56981502 0.70255414 0.42629628
vn 0.22081052 0.97128424 8.8598175e-2
vn -0.15780259 0.48518546 -0.86005431
vn 0.17548000 0.97723723 0.11922318
vn 1.9287848e-4 0.99990415 -1.3843738e-2
vn 0.24229878 0.84609411 0.47478000
vn 0.35310771 0.88265944 0.31020519
vn 4.1918270e-2 0.97952940 0.19688834
vn -0.24186446 0.96734856 7.5751891e-2
vn 0.38060630 0.52972000 -0.75798124
g Cube1
usemtl default
s 1
f 3//3 5//5 10//10
f 3//3 7//7 5//5
f 4//4 11//11 5//5
f 5//5 6//6 1//1
f 5//5 9//9 4//4
f 6//6 5//5 7//7
f 8//8 5//5 2//2
f 9//9 5//5 8//8
f 10//10 5//5 11//11
